<?xml version="1.0" encoding="utf-8"?>
<!-- Generator: Adobe Illustrator 18.0.0, SVG Export Plug-In . SVG Version: 6.00 Build 0)  -->
<!DOCTYPE svg PUBLIC "-//W3C//DTD SVG 1.1//EN" "http://www.w3.org/Graphics/SVG/1.1/DTD/svg11.dtd">
<svg version="1.1" id="icons_x5F_unsorted" xmlns="http://www.w3.org/2000/svg" xmlns:xlink="http://www.w3.org/1999/xlink" x="0px"
	 y="0px" viewBox="0 0 85 85" enable-background="new 0 0 85 85" xml:space="preserve">
<g>
	<path fill="none" stroke="#231F20" stroke-miterlimit="10" d="M52.4,57c0,1.6-1.4,3-3,3H35.1c-1.7,0-3-1.4-3-3V28c0-1.6,1.3-3,3-3
		h14.3c1.6,0,3,1.4,3,3V57z"/>
</g>
<rect x="34.5" y="31.1" fill="none" stroke="#231F20" stroke-miterlimit="10" width="15.4" height="20.6"/>
<circle fill="#FFFFFF" stroke="#231F20" stroke-miterlimit="10" cx="42.3" cy="28.2" r="0.4"/>
<circle fill="none" stroke="#231F20" stroke-miterlimit="10" cx="42.4" cy="55.9" r="2"/>
<rect x="45.8" y="31.9" transform="matrix(0.7071 0.7071 -0.7071 0.7071 36.667 -23.9765)" fill="#231F20" width="3" height="0.7"/>
<rect x="43.1" y="33.2" transform="matrix(0.7071 0.7071 -0.7071 0.7071 37.2213 -22.8149)" fill="#231F20" width="6.1" height="0.7"/>
<rect x="40" y="34.3" transform="matrix(0.7071 0.7071 -0.7071 0.7071 37.6473 -21.6733)" fill="#231F20" width="9.9" height="0.7"/>
</svg>
