<?xml version="1.0" encoding="utf-8"?>
<!-- Generator: Adobe Illustrator 18.0.0, SVG Export Plug-In . SVG Version: 6.00 Build 0)  -->
<!DOCTYPE svg PUBLIC "-//W3C//DTD SVG 1.1//EN" "http://www.w3.org/Graphics/SVG/1.1/DTD/svg11.dtd">
<svg version="1.1" id="icons_x5F_unsorted" xmlns="http://www.w3.org/2000/svg" xmlns:xlink="http://www.w3.org/1999/xlink" x="0px"
	 y="0px" viewBox="0 0 85 85" enable-background="new 0 0 85 85" xml:space="preserve">
<path fill="none" stroke="#231F20" stroke-miterlimit="10" d="M36.5,53.2c0,1.3-1.1,2.4-2.4,2.4l0,0c-1.3,0-2.4-1.1-2.4-2.4l0,0
	c0-1.3,1.1-2.4,2.4-2.4l0,0C35.5,50.8,36.5,51.9,36.5,53.2L36.5,53.2z"/>
<path fill="none" stroke="#231F20" stroke-miterlimit="10" d="M45.7,53.2c0,1.3-1.1,2.4-2.4,2.4l0,0c-1.3,0-2.4-1.1-2.4-2.4l0,0
	c0-1.3,1.1-2.4,2.4-2.4l0,0C44.6,50.8,45.7,51.9,45.7,53.2L45.7,53.2z"/>
<path fill="none" stroke="#231F20" stroke-miterlimit="10" d="M54.9,53.2c0,1.3-1.1,2.4-2.4,2.4l0,0c-1.3,0-2.4-1.1-2.4-2.4l0,0
	c0-1.3,1.1-2.4,2.4-2.4l0,0C53.8,50.7,54.9,51.8,54.9,53.2L54.9,53.2z"/>
<path fill="none" stroke="#231F20" stroke-miterlimit="10" d="M45.7,33.4c0,1.3-1.1,2.4-2.4,2.4l0,0c-1.3,0-2.4-1.1-2.4-2.4l0,0
	c0-1.3,1.1-2.4,2.4-2.4l0,0C44.6,31,45.7,32,45.7,33.4L45.7,33.4z"/>
<line fill="none" stroke="#231F20" stroke-miterlimit="10" x1="43.3" y1="50.5" x2="43.3" y2="35.5"/>
<line fill="none" stroke="#231F20" stroke-miterlimit="10" x1="35" y1="50.9" x2="43.5" y2="42.5"/>
<line fill="none" stroke="#231F20" stroke-miterlimit="10" x1="43.2" y1="42.6" x2="51.6" y2="51"/>
</svg>
